<svg xmlns="http://www.w3.org/2000/svg" style="display:none" aria-hidden="true">
<symbol id="cat-business" viewBox="0 0 48 48" fill="none"><g id="store-2--store-shop-shops-stores">
<path id="Intersect" stroke="currentColor" stroke-linecap="round" stroke-linejoin="round" d="M31.94 44.895c0.036 -1.3 0.06 -2.91 0.06 -4.895 0 -3.565 -0.077 -5.924 -0.161 -7.441 -0.088 -1.581 -1.015 -2.894 -2.574 -3.173C28.091 29.176 26.395 29 24 29c-2.394 0 -4.09 0.175 -5.265 0.386 -1.559 0.279 -2.486 1.591 -2.574 3.173C16.077 34.076 16 36.434 16 40c0 1.984 0.024 3.595 0.06 4.895" stroke-width="3"></path>
<path id="Union" stroke="currentColor" stroke-linecap="round" stroke-linejoin="round" d="M6.09 6.916c0.677 -1.804 2.223 -3.11 4.139 -3.322C12.789 3.311 17.155 3 24 3c6.845 0 11.21 0.31 13.771 0.594 1.916 0.213 3.462 1.518 4.138 3.322C45 15.163 45 17.736 45 17.736A5.257 5.257 0 0 1 39.75 23c-2.9 0 -5.25 -2.356 -5.25 -5.263A5.257 5.257 0 0 1 29.25 23c-2.9 0 -5.25 -2.356 -5.25 -5.263A5.257 5.257 0 0 1 18.75 23c-2.9 0 -5.25 -2.356 -5.25 -5.263A5.257 5.257 0 0 1 8.25 23C5.35 23 3 20.644 3 17.737c0 0 0 -2.574 3.09 -10.82Z" stroke-width="3"></path>
<path id="Subtract" stroke="currentColor" stroke-linecap="round" stroke-linejoin="round" d="M5 21.87V30c0 4.446 0.179 7.763 0.378 10.075 0.217 2.536 2.216 4.408 4.756 4.563 2.939 0.18 7.484 0.362 13.866 0.362s10.927 -0.182 13.866 -0.362c2.54 -0.155 4.539 -2.027 4.756 -4.563 0.2 -2.312 0.378 -5.629 0.378 -10.075v-8.13" stroke-width="3"></path>
</g></symbol>
<symbol id="cat-compliment" viewBox="0 0 48 48" fill="none"><g id="like-1--reward-social-up-rating-media-like-thumb-hand">
<path id="Rectangle 134" stroke="currentColor" stroke-linecap="round" stroke-linejoin="round" d="M3.156 41.45c0.04 1.47 0.906 2.79 2.343 3.097 0.923 0.197 2.105 0.358 3.501 0.358s2.578 -0.16 3.5 -0.358c1.438 -0.307 2.305 -1.628 2.344 -3.097 0.067 -2.496 0.156 -6.72 0.156 -11.545s-0.089 -9.049 -0.156 -11.544c-0.04 -1.47 -0.906 -2.79 -2.343 -3.097A16.776 16.776 0 0 0 9 14.905c-1.396 0 -2.578 0.162 -3.5 0.359 -1.438 0.307 -2.305 1.628 -2.344 3.097C3.089 20.856 3 25.08 3 29.905s0.089 9.049 0.156 11.545Z" stroke-width="3"></path>
<path id="Subtract" stroke="currentColor" stroke-linecap="round" stroke-linejoin="round" d="M14.75 17.38c1.616 -3.539 3.461 -8.548 4.387 -11.648 0.5 -1.675 2.006 -2.875 3.747 -2.718 1.095 0.098 2.362 0.283 3.55 0.623 2.135 0.612 3.284 2.71 3.443 4.926 0.152 2.125 0.146 4.289 0.075 6.198 3.247 -0.305 6.432 -0.548 9.28 -0.696 3.04 -0.159 5.587 2.115 5.702 5.155 0.214 5.637 0.038 14.68 -2.554 21.702 -0.905 2.45 -3.317 3.908 -5.929 3.963 -8.501 0.18 -17.136 -0.873 -22.133 -1.631" stroke-width="3"></path>
<path id="Vector 1365" stroke="currentColor" stroke-linecap="round" stroke-linejoin="round" d="M9 38.905v-2" stroke-width="3"></path>
</g></symbol>
<symbol id="cat-housing" viewBox="0 0 48 48" fill="none"><g id="home-1--home-house-roof-shelter">
<path id="Vector 705" stroke="currentColor" stroke-linecap="round" stroke-linejoin="round" d="M26.8148 4.15979c7.2347 3.21132 12.7189 7.42931 15.5541 9.86701 1.4328 1.232 2.2317 3.0051 2.3306 4.8921C44.8354 21.5103 45 25.5652 45 30c0 3.4116 -0.0974 6.7062 -0.2042 9.293 -0.1239 3.0011 -2.5102 5.3682 -5.5121 5.4707 -3.4603 0.1181 -8.5948 0.2363 -15.2836 0.2363 -6.6889 0 -11.8234 -0.1182 -15.28377 -0.2363 -3.00187 -0.1025 -5.38809 -2.4695 -5.51204 -5.4706C3.09745 36.7063 3 33.4116 3 30c0 -4.4348 0.16468 -8.4898 0.30058 -11.0812 0.09897 -1.887 0.89784 -3.66 2.33063 -4.8919 2.83511 -2.4377 8.31939 -6.65576 15.55409 -9.86711 1.7913 -0.79509 3.8383 -0.79509 5.6295 0Z" stroke-width="3"></path>
<path id="Vector 1068" stroke="currentColor" stroke-linecap="round" stroke-linejoin="round" d="m16 38 16 0" stroke-width="3"></path>
</g></symbol>
<symbol id="cat-noise" viewBox="0 0 48 48" fill="none"><g id="volume-level-high--speaker-high-volume-control-audio-music-entertainment">
<path id="Ellipse 68" stroke="currentColor" stroke-linecap="round" stroke-linejoin="round" d="M40 12c6.667 6.627 6.667 17.373 0 24" stroke-width="3"></path>
<path id="Ellipse 69" stroke="currentColor" stroke-linecap="round" stroke-linejoin="round" d="M35 16c4 4.418 4 11.582 0 16" stroke-width="3"></path>
<path id="Union" stroke="currentColor" stroke-linejoin="round" d="M28.352 7.194c-0.157 -1.732 -1.801 -2.88 -3.439 -2.294C17.248 7.642 11 13.5 11 13.5s-2.752 0.611 -5.147 1.356a3.282 3.282 0 0 0 -2.273 2.558A37.372 37.372 0 0 0 3 24c0 2.768 0.307 5.076 0.58 6.585a3.282 3.282 0 0 0 2.273 2.558C8.248 33.888 11 34.5 11 34.5s6.248 5.858 13.913 8.6c1.638 0.586 3.282 -0.562 3.439 -2.294 0.288 -3.2 0.648 -8.801 0.648 -16.806s-0.36 -13.607 -0.648 -16.806Z" stroke-width="3"></path>
<path id="Vector 1357" stroke="currentColor" stroke-linecap="round" stroke-linejoin="round" d="M11 13.5s-0.5 4.786 -0.5 10.5 0.5 10.5 0.5 10.5" stroke-width="3"></path>
</g></symbol>
<symbol id="cat-other" viewBox="0 0 48 48" fill="none"><g id="pin-2--pin-push-thumbtack">
<path id="Ellipse 161" stroke="currentColor" stroke-linecap="round" stroke-linejoin="round" d="M45 19c0 8.837 -7.163 16 -16 16s-16 -7.163 -16 -16S20.163 3 29 3s16 7.163 16 16Z" stroke-width="3"></path>
<path id="Subtract" stroke="currentColor" stroke-linecap="round" stroke-linejoin="round" d="m14.55 25.878 -0.36 0.504C8.091 34.953 1.928 43.614 3.157 44.843c1.229 1.23 9.89 -4.934 18.462 -11.034l0.503 -0.358" stroke-width="3"></path>
<path id="Ellipse 162" stroke="currentColor" stroke-linecap="round" stroke-linejoin="round" d="M36.07 11.929c-3.905 -3.906 -10.237 -3.906 -14.142 0" stroke-width="3"></path>
</g></symbol>
<symbol id="cat-parks" viewBox="0 0 48 48" fill="none"><g id="park--bench-relax-location-outdoor-recreation-travel-places">
<path id="Rectangle 58" stroke="currentColor" stroke-linecap="round" stroke-linejoin="round" d="M44.93 32.086c-0.123 -1.143 -1.11 -1.782 -2.258 -1.829C40.138 30.153 34.596 30 24 30s-16.138 0.154 -18.672 0.257c-1.149 0.047 -2.135 0.686 -2.259 1.83 -0.042 0.388 -0.069 0.855 -0.069 1.413s0.027 1.025 0.07 1.414c0.123 1.143 1.11 1.782 2.258 1.829C7.862 36.846 13.404 37 24 37s16.138 -0.154 18.672 -0.257c1.149 -0.047 2.135 -0.686 2.259 -1.83 0.042 -0.388 0.069 -0.855 0.069 -1.413s-0.027 -1.025 -0.07 -1.414Z" stroke-width="3"></path>
<path id="Rectangle 60" stroke="currentColor" stroke-linecap="round" stroke-linejoin="round" d="M44.93 32.086c-0.123 -1.143 -1.11 -1.782 -2.258 -1.829C40.138 30.153 34.596 30 24 30s-16.138 0.154 -18.672 0.257c-1.149 0.047 -2.135 0.686 -2.259 1.83 -0.042 0.388 -0.069 0.855 -0.069 1.413s0.027 1.025 0.07 1.414c0.123 1.143 1.11 1.782 2.258 1.829C7.862 36.846 13.404 37 24 37s16.138 -0.154 18.672 -0.257c1.149 -0.047 2.135 -0.686 2.259 -1.83 0.042 -0.388 0.069 -0.855 0.069 -1.413s-0.027 -1.025 -0.07 -1.414Z" stroke-width="3"></path>
<path id="Rectangle 59" stroke="currentColor" stroke-linecap="round" stroke-linejoin="round" d="M41.875 12.07c-0.11 -1.471 -1.233 -2.51 -2.703 -2.629C36.709 9.241 32.062 9 24 9c-8.061 0 -12.71 0.242 -15.172 0.441 -1.47 0.12 -2.592 1.158 -2.703 2.629A53.082 53.082 0 0 0 6 16c0 1.704 0.054 2.984 0.125 3.93 0.11 1.471 1.233 2.51 2.703 2.629 2.463 0.2 7.11 0.441 15.172 0.441 8.061 0 12.71 -0.242 15.172 -0.441 1.47 -0.12 2.592 -1.158 2.703 -2.629A53.07 53.07 0 0 0 42 16a53.07 53.07 0 0 0 -0.125 -3.93Z" stroke-width="3"></path>
<path id="Subtract" stroke="currentColor" stroke-linecap="round" stroke-linejoin="round" d="M9.076 22.578A109.848 109.848 0 0 0 9 27c0 1.247 0.014 2.285 0.035 3.142" stroke-width="3"></path>
<path id="Subtract_2" stroke="currentColor" stroke-linecap="round" stroke-linejoin="round" d="M13.934 22.84c0.037 1.014 0.065 2.37 0.065 4.16 0 1.206 -0.013 2.216 -0.032 3.056" stroke-width="3"></path>
<path id="Subtract_3" stroke="currentColor" stroke-linecap="round" stroke-linejoin="round" d="M34.066 22.84A112.51 112.51 0 0 0 34 27c0 1.206 0.013 2.216 0.033 3.056" stroke-width="3"></path>
<path id="Subtract_4" stroke="currentColor" stroke-linecap="round" stroke-linejoin="round" d="M38.924 22.578c0.042 1.038 0.075 2.473 0.075 4.422 0 1.247 -0.013 2.285 -0.034 3.142" stroke-width="3"></path>
<path id="Subtract_5" stroke="currentColor" stroke-linecap="round" stroke-linejoin="round" d="M5.005 36.713c-0.003 0.402 -0.005 0.83 -0.005 1.286 0 2.384 0.05 4 0.105 5.06 0.057 1.092 0.813 1.913 1.907 1.936a23.742 23.742 0 0 0 0.976 0c1.094 -0.023 1.85 -0.844 1.907 -1.936 0.055 -1.06 0.105 -2.675 0.105 -5.06 0 -0.394 -0.001 -0.767 -0.004 -1.12" stroke-width="3"></path>
<path id="Subtract_6" stroke="currentColor" stroke-linecap="round" stroke-linejoin="round" d="M38.004 36.879c-0.003 0.353 -0.004 0.726 -0.004 1.12 0 2.384 0.05 4 0.105 5.06 0.057 1.092 0.813 1.913 1.907 1.936a23.747 23.747 0 0 0 0.976 0c1.094 -0.023 1.85 -0.844 1.907 -1.936 0.055 -1.06 0.105 -2.675 0.105 -5.06 0 -0.456 -0.002 -0.884 -0.005 -1.286" stroke-width="3"></path>
</g></symbol>
<symbol id="cat-pothole" viewBox="0 0 48 48" fill="none"><g id="street-sign--crossroad-street-sign-metaphor-directions-travel-places">
<path id="Vector 705" stroke="currentColor" stroke-linecap="round" stroke-linejoin="round" d="m26.5 30 6.6071 0c1.9338 0 3.7036 -0.0615 4.8464 -0.1129 0.8585 -0.0387 1.6755 -0.3663 2.278 -0.9791 1.0159 -1.0333 2.6552 -2.8965 3.9897 -5.3308 0.5388 -0.9828 0.5388 -2.1716 0 -3.1544 -1.3344 -2.4343 -2.9737 -4.2975 -3.9896 -5.3309 -0.6026 -0.6128 -1.4196 -0.9403 -2.2782 -0.979C36.8106 14.0615 35.0409 14 33.1071 14L26.5 14" stroke-width="3"></path>
<path id="Vector 1617" stroke="currentColor" stroke-linecap="round" stroke-linejoin="round" d="M37 19.5h-5.5" stroke-width="3"></path>
<path id="Vector 1618" stroke="currentColor" stroke-linecap="round" stroke-linejoin="round" d="m34 24.5 -3 0" stroke-width="3"></path>
<path id="Rectangle 1674" stroke="currentColor" stroke-linecap="round" stroke-linejoin="round" d="m21.5 45 0 -21.5c0 -11.3473 0.0962 -16.29769 0.1692 -18.42119 0.0346 -1.00648 0.5224 -1.9187 1.5227 -2.03512C23.4257 3.01649 23.6937 3 24 3s0.5743 0.01649 0.8081 0.04369c1.0003 0.11642 1.4881 1.02864 1.5227 2.03511 0.073 2.12351 0.1692 7.0739 0.1692 18.4212l0 21.5" stroke-width="3"></path>
<path id="Vector 705_2" stroke="currentColor" stroke-linecap="round" stroke-linejoin="round" d="m21.5 19 -6.6071 0c-1.9338 0 -3.7036 -0.0615 -4.8464 -0.1129 -0.85848 -0.0387 -1.67552 -0.3663 -2.27803 -0.9791 -1.01592 -1.0333 -2.65522 -2.8965 -3.98967 -5.3308 -0.53876 -0.9828 -0.53876 -2.1716 0 -3.15443 1.33444 -2.43429 2.97372 -4.2975 3.98964 -5.33082 0.60252 -0.61285 1.4196 -0.9404 2.27816 -0.97905C11.1894 3.06145 12.9591 3 14.8929 3L24 3" stroke-width="3"></path>
<path id="Vector 1617_2" stroke="currentColor" stroke-linecap="round" stroke-linejoin="round" d="M11 8.5h5.5" stroke-width="3"></path>
<path id="Vector 1618_2" stroke="currentColor" stroke-linecap="round" stroke-linejoin="round" d="m14 13.5 3 0" stroke-width="3"></path>
<path id="Vector 1619" stroke="currentColor" stroke-linecap="round" stroke-linejoin="round" d="M15 45h18" stroke-width="3"></path>
</g></symbol>
<symbol id="cat-safety" viewBox="0 0 48 48" fill="none"><g id="warning-diamond--diamond-alert-warning-frame-exclamation-caution">
<path id="Rectangle 299" stroke="currentColor" stroke-linecap="round" stroke-linejoin="round" d="M4.207 20.68c-1.678 1.938 -1.678 4.702 0 6.64 1.698 1.962 4.28 4.793 7.98 8.492 3.7 3.7 6.53 6.283 8.493 7.98 1.938 1.679 4.702 1.679 6.64 0 1.962 -1.697 4.793 -4.28 8.492 -7.98 3.7 -3.7 6.283 -6.53 7.98 -8.491 1.679 -1.939 1.679 -4.703 0 -6.642 -1.697 -1.961 -4.28 -4.792 -7.98 -8.491 -3.7 -3.7 -6.53 -6.283 -8.491 -7.98 -1.939 -1.679 -4.703 -1.679 -6.642 0 -1.961 1.697 -4.792 4.28 -8.491 7.98 -3.7 3.7 -6.283 6.53 -7.98 8.492Z" stroke-width="3"></path>
<path id="Rectangle 172" stroke="currentColor" stroke-linecap="round" stroke-linejoin="round" d="M20.14 14.137c-0.093 -1.296 0.489 -2.571 1.75 -2.888A8.642 8.642 0 0 1 24 11c0.834 0 1.538 0.105 2.111 0.249 1.26 0.317 1.842 1.592 1.75 2.888 -0.19 2.696 -0.555 7.379 -0.949 10.003 -0.13 0.865 -0.65 1.609 -1.512 1.754 -0.369 0.063 -0.83 0.106 -1.4 0.106s-1.031 -0.044 -1.4 -0.106c-0.862 -0.145 -1.383 -0.889 -1.512 -1.754 -0.394 -2.624 -0.758 -7.307 -0.949 -10.003Z" stroke-width="3"></path>
<path id="Ellipse 67" stroke="currentColor" stroke-linecap="round" stroke-linejoin="round" d="M20.5 33.5a3.5 3.5 0 1 0 7 0 3.5 3.5 0 1 0 -7 0" stroke-width="3"></path>
</g></symbol>
<symbol id="cat-transit" viewBox="0 0 48 48" fill="none"><g id="bus--transportation-travel-bus-transit-transport-motorcoach-public">
<path id="Union" stroke="currentColor" stroke-linecap="round" stroke-linejoin="round" d="M38.167 38.724a3.707 3.707 0 0 0 3.557 -3.557c0.102 -2.228 0.214 -5.59 0.258 -10.167h0.52c1.32 0 2.39 -0.886 2.45 -2.204A50.79 50.79 0 0 0 45 20.455c0 -1.142 -0.027 -2.105 -0.065 -2.888 -0.071 -1.48 -1.307 -2.567 -2.79 -2.567h-0.223a145.447 145.447 0 0 0 -0.336 -6.885c-0.192 -2.557 -2.144 -4.509 -4.701 -4.7C34.096 3.204 29.868 3 24 3c-5.868 0 -10.096 0.205 -12.885 0.414 -2.557 0.192 -4.509 2.144 -4.7 4.701 -0.13 1.727 -0.258 4.006 -0.337 6.885h-0.224c-1.482 0 -2.718 1.087 -2.789 2.567A60.427 60.427 0 0 0 3 20.455c0 0.959 0.02 1.728 0.048 2.341 0.06 1.318 1.13 2.204 2.45 2.204h0.52c0.044 4.576 0.156 7.939 0.258 10.167a3.707 3.707 0 0 0 3.557 3.557c2.833 0.13 7.501 0.276 14.167 0.276 6.666 0 11.334 -0.146 14.167 -0.276Z" stroke-width="3"></path>
<path id="Subtract" stroke="currentColor" stroke-linecap="round" stroke-linejoin="round" d="M10.013 38.732A62.22 62.22 0 0 0 10 40c0 1.326 0.042 2.402 0.088 3.19a1.792 1.792 0 0 0 1.656 1.691c0.762 0.062 1.737 0.12 2.756 0.12 1.02 0 1.994 -0.058 2.756 -0.12a1.792 1.792 0 0 0 1.655 -1.691c0.047 -0.788 0.089 -1.864 0.089 -3.19 0 -0.362 -0.003 -0.705 -0.009 -1.029" stroke-width="3"></path>
<path id="Subtract_2" stroke="currentColor" stroke-linecap="round" stroke-linejoin="round" d="M29.009 38.971a54.957 54.957 0 0 0 0.079 4.219 1.792 1.792 0 0 0 1.656 1.691c0.762 0.062 1.737 0.12 2.756 0.12 1.02 0 1.994 -0.058 2.756 -0.12a1.792 1.792 0 0 0 1.655 -1.691c0.047 -0.788 0.089 -1.864 0.089 -3.19 0 -0.452 -0.005 -0.875 -0.013 -1.268" stroke-width="3"></path>
<path id="Vector 993" stroke="currentColor" stroke-linecap="round" stroke-linejoin="round" d="M14 33h3" stroke-width="3"></path>
<path id="Vector 994" stroke="currentColor" stroke-linecap="round" stroke-linejoin="round" d="M34 33h-3" stroke-width="3"></path>
<path id="Intersect" stroke="currentColor" stroke-linecap="round" stroke-linejoin="round" d="M36.964 27c0.022 -1.47 0.036 -3.134 0.036 -5 0 -6.186 -0.272 -10.03 -0.455 -11.918a1.767 1.767 0 0 0 -1.577 -1.603C33.181 8.282 29.638 8 24 8c-5.639 0 -9.181 0.282 -10.968 0.48a1.767 1.767 0 0 0 -1.577 1.602C11.272 11.971 11 15.814 11 22c0 1.866 0.014 3.53 0.036 5h25.928Z" stroke-width="3"></path>
</g></symbol>
<symbol id="cat-education" viewBox="0 0 48 48" fill="none"><g id="graduation-cap--graduation-cap-education">
<path id="Vector 2536" stroke="currentColor" stroke-linecap="round" stroke-linejoin="round" d="m5 18 0 19" stroke-width="3"></path>
<path id="Rectangle 1097" stroke="currentColor" stroke-linecap="round" stroke-linejoin="round" d="M3.052 16.555c-1.382 -0.662 -1.382 -2.448 0 -3.11 1.812 -0.868 4.519 -2.1 8.348 -3.695 5.32 -2.216 8.954 -3.53 10.905 -4.196a5.23 5.23 0 0 1 3.39 0c1.95 0.666 5.586 1.98 10.905 4.196 3.83 1.595 6.536 2.827 8.349 3.695 1.38 0.662 1.38 2.448 0 3.11 -1.813 0.868 -4.52 2.1 -8.349 3.695 -5.32 2.216 -8.954 3.53 -10.905 4.196a5.23 5.23 0 0 1 -3.39 0c-1.95 -0.666 -5.586 -1.98 -10.905 -4.196 -3.83 -1.596 -6.536 -2.827 -8.348 -3.695Z" stroke-width="3"></path>
<path id="Subtract" stroke="currentColor" stroke-linecap="round" stroke-linejoin="round" d="M11.102 20.125A74.846 74.846 0 0 0 11 24.166c0 3.094 0.159 5.037 0.315 6.2 0.137 1.016 0.719 1.88 1.627 2.355C14.698 33.641 18.265 35 24 35c5.735 0 9.302 -1.358 11.058 -2.278 0.908 -0.475 1.49 -1.339 1.627 -2.354 0.156 -1.164 0.315 -3.107 0.315 -6.2a74.83 74.83 0 0 0 -0.102 -4.042" stroke-width="3"></path>
<path id="Ellipse 20" stroke="currentColor" stroke-linecap="round" stroke-linejoin="round" d="M8 40a3 3 0 1 1 -6 0 3 3 0 1 1 6 0" stroke-width="3"></path>
</g></symbol>
<symbol id="cat-elections" viewBox="0 0 48 48" fill="none"><g id="politics-vote-2">
<path id="Rectangle 1097" stroke="currentColor" stroke-linecap="round" stroke-linejoin="round" d="M45.0002 24.5v6.4999c0 4.0271 -0.1861 7.0613 -0.3978 9.2097 -0.2459 2.4959 -2.2586 4.2886 -4.7628 4.4258 -3.2217 0.1764 -8.4015 0.3645 -15.8394 0.3645 -7.4378 0 -12.6177 -0.1881 -15.83936 -0.3645 -2.5042 -0.1372 -4.51684 -1.9299 -4.76276 -4.4258 -0.21168 -2.1484 -0.39785 -5.1826 -0.39785 -9.2097L3 24.5" stroke-width="3"></path>
<path id="Rectangle 1099" stroke="currentColor" stroke-linecap="round" stroke-linejoin="round" d="M12 16.0859c-1.7098 0.0371 -3.12876 0.0789 -4.27268 0.1188 -2.28353 0.0797 -4.22122 1.5437 -4.48812 3.813C3.10119 21.191 3 22.666 3 24.4686s0.10119 3.2775 0.2392 4.4509c0.26691 2.2692 2.20181 3.7331 4.48534 3.8129 3.18166 0.1111 8.49226 0.2362 16.27546 0.2362 7.7832 0 13.0938 -0.1251 16.2755 -0.2362 2.2835 -0.0798 4.2184 -1.5437 4.4853 -3.813 0.138 -1.1733 0.2392 -2.6482 0.2392 -4.4508s-0.1012 -3.2776 -0.2392 -4.4509c-0.2669 -2.2693 -2.2037 -3.7333 -4.4872 -3.813 -0.5313 -0.0185 -1.122 -0.0375 -1.7736 -0.0562" stroke-width="3"></path>
<path id="Rectangle 1098" stroke="currentColor" stroke-linecap="round" stroke-linejoin="round" d="M33 22.0537c1.1229 0.0154 1.9515 0.0313 2.5073 0.0436 0.5575 0.0124 1.0869 0.2717 1.2608 0.8016 0.125 0.3807 0.2319 0.9089 0.2319 1.6016 0 0.6926 -0.1069 1.2208 -0.2319 1.6016 -0.1739 0.5298 -0.7024 0.7891 -1.2599 0.8015 -1.5515 0.0344 -5.2308 0.0969 -11.5082 0.0969 -6.2774 -0.0001 -9.9567 -0.0625 -11.5082 -0.0969 -0.5575 -0.0124 -1.086 -0.2717 -1.2599 -0.8015 -0.125 -0.3808 -0.2319 -0.909 -0.2319 -1.6017 0 -0.6926 0.1069 -1.2208 0.2319 -1.6016 0.1739 -0.5298 0.7033 -0.7891 1.2608 -0.8015 0.5558 -0.0123 1.3843 -0.0282 2.5071 -0.0436" stroke-width="3"></path>
<path id="Rectangle 1096" stroke="currentColor" stroke-linecap="round" stroke-linejoin="round" d="M17.3163 12.0177c-1.4308 1.5512 -1.5192 3.808 -0.1077 5.3769 0.5774 0.6418 1.2858 1.3938 2.1452 2.2529 0.8594 0.8593 1.6116 1.5676 2.2535 2.1449 1.5691 1.4111 3.8258 1.3223 5.3767 -0.1087 1.01 -0.9319 2.3139 -2.1747 3.9198 -3.7808 1.6058 -1.606 2.8483 -2.9101 3.78 -3.9202 1.4309 -1.5512 1.5193 -3.808 0.1078 -5.37682 -0.5774 -0.64179 -1.2858 -1.39379 -2.1452 -2.25297 -0.8594 -0.85925 -1.6116 -1.56755 -2.2536 -2.14487 -1.569 -1.4111 -3.8257 -1.32231 -5.3766 0.10871 -1.01 0.93189 -2.314 2.1747 -3.9198 3.78079 -1.6058 1.60602 -2.8483 2.91016 -3.7801 3.92016Z" stroke-width="3"></path>
</g></symbol>
<symbol id="cat-environment" viewBox="0 0 48 48" fill="none"><g id="leaf-protect--nature-environment-leaf-ecology-plant-plants-eco">
<path id="Ellipse 517" stroke="currentColor" stroke-linecap="round" stroke-linejoin="round" d="M12.1908 35.3272c-0.2691 -0.2327 -0.5314 -0.4765 -0.7864 -0.7316 -6.36062 -6.3605 -5.76105 -17.2726 1.3391 -24.3728C23.4569 -0.490561 42.1159 3.88405 42.1159 3.88405S44.004 11.9372 42.2617 20.5" stroke-width="3"></path>
<path id="Ellipse 518" stroke="currentColor" stroke-linecap="round" stroke-linejoin="round" d="M16.711 38c1.3706 0.5116 2.8139 0.8259 4.289 0.9452" stroke-width="3"></path>
<path id="Vector 6" stroke="currentColor" stroke-linecap="round" stroke-linejoin="round" d="M37 9c-5 3.3333 -27 19.5 -27 36" stroke-width="3"></path>
<path id="Rectangle 113" stroke="currentColor" stroke-linecap="round" stroke-linejoin="round" d="M25.1955 28.5798c0.1453 -1.6521 1.1727 -2.9695 2.8149 -3.2018C29.4481 25.1747 31.6563 25 35 25s5.5519 0.1747 6.9896 0.378c1.6422 0.2323 2.6696 1.5497 2.8149 3.2018C44.9089 29.7673 45 31.2925 45 33c0 4.5142 -2.3825 8.7382 -6.3963 10.8039C37.2629 44.494 35.9544 45 35 45c-0.9544 0 -2.2629 -0.506 -3.6037 -1.1961C27.3825 41.7382 25 37.5142 25 33c0 -1.7075 0.0911 -3.2327 0.1955 -4.4202Z" stroke-width="3"></path>
<path id="Vector 993" stroke="currentColor" stroke-linecap="round" stroke-linejoin="round" d="M31 33.7333 34.7059 38 40 30" stroke-width="3"></path>
</g></symbol>
<symbol id="cat-healthcare" viewBox="0 0 48 48" fill="none"><g id="hospital-sign-square--health-sign-medical-symbol-hospital-square-emergency">
<path id="Rectangle 1096" stroke="currentColor" stroke-linecap="round" d="M3.539 8.257c0.208 -2.555 2.163 -4.51 4.718 -4.718C11.485 3.277 16.636 3 24 3c7.364 0 12.515 0.277 15.743 0.539 2.555 0.208 4.51 2.163 4.718 4.718C44.723 11.485 45 16.636 45 24c0 7.364 -0.277 12.515 -0.539 15.743 -0.208 2.555 -2.163 4.51 -4.718 4.718C36.515 44.723 31.364 45 24 45c-7.364 0 -12.515 -0.277 -15.743 -0.539 -2.555 -0.208 -4.51 -2.163 -4.718 -4.718C3.277 36.515 3 31.364 3 24c0 -7.364 0.277 -12.515 0.539 -15.743Z" stroke-width="3"></path>
<path id="Union" stroke="currentColor" stroke-linecap="round" stroke-linejoin="round" d="M16.721 10.104c1.344 0.175 2.125 1.377 2.16 2.731 0.04 1.527 0.085 3.894 0.107 7.206A280.24 280.24 0 0 1 24 20c2.008 0 3.67 0.017 5.012 0.041 0.022 -3.312 0.067 -5.679 0.107 -7.206 0.035 -1.354 0.816 -2.556 2.16 -2.73A13.384 13.384 0 0 1 33 10c0.667 0 1.239 0.042 1.721 0.104 1.344 0.175 2.125 1.377 2.16 2.731 0.054 2.078 0.119 5.71 0.119 11.165 0 5.454 -0.065 9.087 -0.12 11.165 -0.034 1.354 -0.815 2.556 -2.159 2.73 -0.482 0.063 -1.054 0.105 -1.721 0.105s-1.239 -0.042 -1.721 -0.104c-1.344 -0.175 -2.125 -1.377 -2.16 -2.731 -0.04 -1.527 -0.085 -3.894 -0.107 -7.206A280.24 280.24 0 0 1 24 28c-2.008 0 -3.67 -0.017 -5.012 -0.041a375.638 375.638 0 0 1 -0.107 7.206c-0.035 1.354 -0.816 2.556 -2.16 2.73 -0.482 0.063 -1.054 0.105 -1.721 0.105s-1.239 -0.042 -1.721 -0.104c-1.344 -0.175 -2.125 -1.377 -2.16 -2.731C11.065 33.087 11 29.455 11 24c0 -5.454 0.065 -9.087 0.12 -11.165 0.034 -1.354 0.815 -2.556 2.159 -2.73A13.384 13.384 0 0 1 15 10c0.667 0 1.239 0.042 1.721 0.104Z" stroke-width="3"></path>
</g></symbol>
<symbol id="cat-housing-policy" viewBox="0 0 48 48" fill="none"><g id="door--door-entrance-house-home">
<path id="Rectangle 722" stroke="currentColor" stroke-linecap="round" stroke-linejoin="round" d="M36.3777 3.50259c2.2033 0.21916 3.8419 1.85062 4.0505 4.05499C40.7067 10.4991 41 15.5931 41 24c0 8.4069 -0.2933 13.5009 -0.5718 16.4424 -0.2086 2.2044 -1.8472 3.8358 -4.0505 4.055 -2.5221 0.2509 -6.5137 0.5026 -12.3776 0.5026 -5.864 0 -9.8557 -0.2517 -12.3777 -0.5026 -2.20341 -0.2192 -3.84201 -1.8506 -4.05065 -4.055C7.29333 37.5009 7 32.4069 7 24c0 -8.4069 0.29333 -13.5009 0.57175 -16.44238 0.20864 -2.2044 1.84724 -3.83586 4.05065 -4.05503C14.1444 3.25173 18.1361 3 24.0001 3c5.8639 0 9.8555 0.25173 12.3776 0.50259Z" stroke-width="3"></path>
<path id="Vector 1514" stroke="currentColor" stroke-linecap="round" stroke-linejoin="round" d="M34 24h-4" stroke-width="3"></path>
</g></symbol>
<symbol id="cat-infrastructure" viewBox="0 0 48 48" fill="none"><g id="industry-innovation-and-infrastructure">
<path id="Rectangle 1096" stroke="currentColor" stroke-linejoin="round" d="M13.7334 19.4702c0.1214 1.1689 0.8693 2.1411 1.9371 2.6318 2.2169 1.0189 6.109 2.648 8.3295 2.648 2.2205 0 6.1126 -1.6291 8.3295 -2.648 1.0678 -0.4907 1.8157 -1.4629 1.9371 -2.6318 0.1193 -1.1474 0.2334 -2.8619 0.2334 -5.2202 0 -2.3583 -0.1141 -4.0728 -0.2334 -5.22024 -0.1214 -1.16885 -0.8693 -2.14106 -1.9371 -2.63179C30.1126 5.37913 26.2205 3.75 24 3.75c-2.2205 0 -6.1126 1.62913 -8.3295 2.64797 -1.0678 0.49073 -1.8157 1.46294 -1.9371 2.6318C13.6141 10.1772 13.5 11.8917 13.5 14.25s0.1141 4.0728 0.2334 5.2202Z" stroke-width="3"></path>
<path id="Rectangle 1097" stroke="currentColor" stroke-linejoin="round" d="M13.5 7.95039S21.8799 12.1504 24 12.1504c2.1201 0 10.5 -4.20001 10.5 -4.20001" stroke-width="3"></path>
<path id="Vector 1655" stroke="currentColor" stroke-linecap="round" stroke-linejoin="round" d="M24 12.1504v12.6" stroke-width="3"></path>
<path id="Rectangle 1096_2" stroke="currentColor" stroke-linejoin="round" d="M3.23335 37.7202c0.12143 1.1689 0.86937 2.1411 1.93715 2.6318C7.38744 41.3709 11.2795 43 13.5 43c2.2205 0 6.1126 -1.6291 8.3295 -2.648 1.0678 -0.4907 1.8157 -1.4629 1.9371 -2.6318C23.8859 36.5728 24 34.8583 24 32.5c0 -2.3583 -0.1141 -4.0728 -0.2334 -5.2202 -0.1214 -1.1689 -0.8693 -2.1411 -1.9371 -2.6318C19.6126 23.6291 15.7205 22 13.5 22c-2.2205 0 -6.11256 1.6291 -8.32949 2.648 -1.06779 0.4907 -1.81573 1.4629 -1.93716 2.6318C3.11414 28.4272 3 30.1417 3 32.5c0 2.3583 0.11414 4.0728 0.23335 5.2202Z" stroke-width="3"></path>
<path id="Rectangle 1097_2" stroke="currentColor" stroke-linejoin="round" d="M3 26.2004s8.3799 4.2 10.5 4.2c2.1201 0 10.5 -4.2 10.5 -4.2" stroke-width="3"></path>
<path id="Vector 1655_2" stroke="currentColor" stroke-linecap="round" stroke-linejoin="round" d="M13.5 30.4004v12.6" stroke-width="3"></path>
<path id="Rectangle 1096_3" stroke="currentColor" stroke-linejoin="round" d="M24.2334 37.7202c0.1214 1.1689 0.8693 2.1411 1.9371 2.6318C28.3874 41.3709 32.2795 43 34.5 43c2.2205 0 6.1126 -1.6291 8.3295 -2.648 1.0678 -0.4907 1.8157 -1.4629 1.9371 -2.6318C44.8859 36.5728 45 34.8583 45 32.5c0 -2.3583 -0.1141 -4.0728 -0.2334 -5.2202 -0.1214 -1.1689 -0.8693 -2.1411 -1.9371 -2.6318C40.6126 23.6291 36.7205 22 34.5 22c-2.2205 0 -6.1126 1.6291 -8.3295 2.648 -1.0678 0.4907 -1.8157 1.4629 -1.9371 2.6318C24.1141 28.4272 24 30.1417 24 32.5c0 2.3583 0.1141 4.0728 0.2334 5.2202Z" stroke-width="3"></path>
<path id="Rectangle 1097_3" stroke="currentColor" stroke-linejoin="round" d="M24 26.2004s8.3799 4.2 10.5 4.2c2.1201 0 10.5 -4.2 10.5 -4.2" stroke-width="3"></path>
<path id="Vector 1655_3" stroke="currentColor" stroke-linecap="round" stroke-linejoin="round" d="M34.5 30.4004v12.6" stroke-width="3"></path>
</g></symbol>
<symbol id="cat-legislation" viewBox="0 0 48 48" fill="none"><g id="justice-scale-2--office-work-scale-justice-unequal-company-arbitration-unbalance-court">
<path id="Ellipse 208" stroke="currentColor" stroke-linecap="round" stroke-linejoin="round" d="M35.501 40c-4.665 0 -8.544 -3.331 -9.347 -7.724 -0.176 -0.962 0.557 -1.798 1.53 -1.9 1.603 -0.169 4.291 -0.376 7.817 -0.376s6.215 0.207 7.817 0.376c0.973 0.102 1.707 0.938 1.53 1.9C44.047 36.67 40.167 40 35.502 40Z" stroke-width="3"></path>
<path id="Rectangle 678" stroke="currentColor" stroke-linecap="round" stroke-linejoin="round" d="M41.52 5.527c-0.28 -0.73 -1.049 -0.97 -1.818 -0.828 -1.97 0.364 -6.642 1.28 -15.986 3.36 -9.344 2.082 -13.963 3.236 -15.901 3.743 -0.757 0.198 -1.352 0.74 -1.294 1.521 0.022 0.298 0.073 0.658 0.17 1.09 0.095 0.433 0.202 0.781 0.309 1.06 0.278 0.731 1.047 0.97 1.817 0.828 1.97 -0.363 6.642 -1.28 15.986 -3.36 9.344 -2.082 13.963 -3.236 15.901 -3.743 0.757 -0.198 1.352 -0.74 1.294 -1.521a7.635 7.635 0 0 0 -0.17 -1.09 7.651 7.651 0 0 0 -0.309 -1.06Z" stroke-width="3"></path>
<path id="Vector 1617" stroke="currentColor" stroke-linecap="round" stroke-linejoin="round" d="M24.002 3v5" stroke-width="3"></path>
<path id="Ellipse 207" stroke="currentColor" stroke-linecap="round" stroke-linejoin="round" d="M12.501 45c-4.665 0 -8.544 -3.331 -9.347 -7.724 -0.176 -0.962 0.557 -1.798 1.53 -1.9C6.288 35.208 8.976 35 12.502 35s6.215 0.208 7.817 0.376c0.973 0.102 1.707 0.938 1.53 1.9C21.047 41.67 17.167 45 12.502 45Z" stroke-width="3"></path>
<path id="Subtract" stroke="currentColor" stroke-linecap="round" stroke-linejoin="round" d="M36.304 10.293c1.567 4.514 4.996 14.584 6.325 20.015" stroke-width="3"></path>
<path id="Subtract_2" stroke="currentColor" stroke-linecap="round" stroke-linejoin="round" d="M13.344 15.408c1.585 4.569 4.967 14.514 6.285 19.899" stroke-width="3"></path>
<path id="Subtract_3" stroke="currentColor" stroke-linecap="round" stroke-linejoin="round" d="M34.555 10.71c-1.625 4.693 -4.891 14.329 -6.18 19.598" stroke-width="3"></path>
<path id="Subtract_4" stroke="currentColor" stroke-linecap="round" stroke-linejoin="round" d="M11.531 15.775C9.9 20.491 6.657 30.062 5.374 35.307" stroke-width="3"></path>
</g></symbol>
<symbol id="cat-other-state" viewBox="0 0 48 48" fill="none"><g id="rectangle-flag--navigation-map-maps-flag-gps-location-destination-goal">
<path id="Rectangle 58" stroke="currentColor" stroke-linecap="round" stroke-linejoin="round" d="M4.872 3.06c-1.053 0.12 -1.608 1.055 -1.646 2.115C3.137 7.635 3 13.185 3 24s0.137 16.364 0.226 18.825c0.038 1.06 0.593 1.995 1.646 2.116 0.316 0.036 0.69 0.059 1.128 0.059 0.439 0 0.812 -0.023 1.128 -0.06 1.053 -0.12 1.608 -1.055 1.646 -2.115C8.863 40.365 9 34.815 9 24S8.863 7.636 8.774 5.175c-0.038 -1.06 -0.593 -1.995 -1.646 -2.116A9.919 9.919 0 0 0 6 3c-0.439 0 -0.812 0.023 -1.128 0.06Z" stroke-width="3"></path>
<path id="Subtract" stroke="currentColor" stroke-linecap="round" stroke-linejoin="round" d="M8.971 31.976c4.08 0.245 7.433 0.955 10.6 1.626 6.78 1.438 12.7 2.692 23.053 -1.21 0.82 -0.308 1.44 -0.986 1.597 -1.848 0.32 -1.77 0.779 -5.469 0.779 -12.152 0 -4.951 -0.252 -8.265 -0.513 -10.369 -0.212 -1.714 -1.921 -2.566 -3.564 -2.032 -8.947 2.906 -14.498 1.28 -20.592 -0.504C16.453 4.35 12.354 3.15 7.02 3.013H6" stroke-width="3"></path>
</g></symbol>
<symbol id="cat-state-budget" viewBox="0 0 48 48" fill="none"><g id="piggy-bank--institution-saving-bank-payment-finance">
<path id="Union" stroke="currentColor" stroke-linecap="round" stroke-linejoin="round" d="M29.6392 3.03056C30.3598 3.01105 31.1452 3 32 3c0 0 1 2 1 8 0 0.2452 -0.0017 0.4837 -0.0049 0.7157 3.1127 1.5943 5.4952 4.2413 6.8225 7.5373 0.9326 -0.1245 1.8426 -0.2113 2.6869 -0.2414 1.2708 -0.0452 2.271 0.911 2.3671 2.179 0.0705 0.931 0.1284 2.189 0.1284 3.8094s-0.0579 2.8784 -0.1284 3.8094c-0.0961 1.268 -1.0963 2.2242 -2.3671 2.179 -0.6519 -0.0232 -1.343 -0.0803 -2.0533 -0.1624 -0.573 2.1953 -1.5787 4.1683 -2.9387 5.8215 0.6671 1.4462 1.2582 2.8232 1.6966 3.8747 0.4864 1.1668 0.1644 2.5137 -0.844 3.2759 -0.4193 0.3169 -0.8544 0.6233 -1.2187 0.8318 -0.3728 0.2134 -0.8722 0.439 -1.37 0.6443 -1.1542 0.476 -2.4627 0.0874 -3.228 -0.899 -0.6307 -0.813 -1.4344 -1.8696 -2.2722 -3.025 -1.2429 0.3515 -2.5673 0.5554 -3.9583 0.5934C24.9949 41.9797 23.5581 42 22 42s-2.9949 -0.0203 -4.3179 -0.0564c-1.391 -0.038 -2.7154 -0.2419 -3.9583 -0.5934 -0.8378 1.1554 -1.6415 2.212 -2.2722 3.025 -0.7653 0.9864 -2.07382 1.375 -3.22799 0.899 -0.4978 -0.2053 -0.99719 -0.4309 -1.36999 -0.6443 -0.36433 -0.2085 -0.7994 -0.5149 -1.2187 -0.8318 -1.00843 -0.7622 -1.33042 -2.1091 -0.84402 -3.2759 0.43839 -1.0515 1.02945 -2.4285 1.6966 -3.8747 -2.19768 -2.6714 -3.47015 -6.1778 -3.48639 -10.108C3.00038 26.3611 3 26.1812 3 26c0 -0.1812 0.00038 -0.3611 0.00111 -0.5395 0.03552 -8.5992 6.0849 -15.1695 14.68099 -15.4041C19.0051 10.0203 20.4419 10 22 10l0.0545 0c0.4374 -3.95862 3.4646 -6.85791 7.5847 -6.96944Z" stroke-width="3"></path>
<path id="Union_2" stroke="currentColor" stroke-linecap="round" stroke-linejoin="round" d="M11.5 18.491c1.7737 -1.7829 4.2831 -2.8875 7.2299 -2.9635 0.4642 -0.012 0.9488 -0.0213 1.4545 -0.0275" stroke-width="3"></path>
<path id="Vector 2497" stroke="currentColor" stroke-linecap="round" stroke-linejoin="round" d="m31 18 0 1" stroke-width="3"></path>
<path id="Vector" stroke="currentColor" stroke-linecap="round" stroke-linejoin="round" d="M7.14334 13.9997C4.42625 13.9997 2 11.7446 2 8.96273 2 6.1809 4.42625 3.92578 7.14334 3.92578c2.57166 0 3.85676 1.37338 3.85676 2.7471" stroke-width="3"></path>
</g></symbol>
<symbol id="ui-activity" viewBox="0 0 48 48" fill="none"><g id="notepad-text--content-notes-book-notepad-notebook">
<path id="Vector 829" stroke="currentColor" stroke-linecap="round" stroke-linejoin="round" d="m15 25 18 0" stroke-width="3"></path>
<path id="Vector 830" stroke="currentColor" stroke-linecap="round" stroke-linejoin="round" d="M15 34h9" stroke-width="3"></path>
<path id="Rectangle 1098" stroke="currentColor" stroke-linecap="round" stroke-linejoin="round" d="M10.043 10.628c0.042 1.25 0.791 2.277 2.04 2.348 0.27 0.015 0.575 0.024 0.917 0.024 0.342 0 0.646 -0.009 0.916 -0.024 1.25 -0.07 2 -1.097 2.041 -2.348a78.575 78.575 0 0 0 0 -5.256c-0.042 -1.25 -0.791 -2.277 -2.04 -2.348a17.668 17.668 0 0 0 -1.833 0c-1.25 0.07 -2 1.097 -2.041 2.348a78.573 78.573 0 0 0 0 5.256Z" stroke-width="3"></path>
<path id="Rectangle 1099" stroke="currentColor" stroke-linecap="round" stroke-linejoin="round" d="M21.043 10.628c0.042 1.25 0.791 2.277 2.04 2.348 0.27 0.015 0.575 0.024 0.917 0.024 0.342 0 0.646 -0.009 0.916 -0.024 1.25 -0.07 2 -1.097 2.041 -2.348a78.575 78.575 0 0 0 0 -5.256c-0.042 -1.25 -0.791 -2.277 -2.04 -2.348a17.668 17.668 0 0 0 -1.833 0c-1.25 0.07 -2 1.097 -2.041 2.348a78.573 78.573 0 0 0 0 5.256Z" stroke-width="3"></path>
<path id="Rectangle 1100" stroke="currentColor" stroke-linecap="round" stroke-linejoin="round" d="M32.043 10.628c0.042 1.25 0.791 2.277 2.04 2.348 0.27 0.015 0.575 0.024 0.917 0.024 0.342 0 0.646 -0.009 0.916 -0.024 1.25 -0.07 2 -1.097 2.041 -2.348a78.575 78.575 0 0 0 0 -5.256c-0.042 -1.25 -0.791 -2.277 -2.04 -2.348a17.668 17.668 0 0 0 -1.833 0c-1.25 0.07 -2 1.097 -2.041 2.348a78.573 78.573 0 0 0 0 5.256Z" stroke-width="3"></path>
<path id="Subtract" stroke="currentColor" stroke-linecap="round" stroke-linejoin="round" d="M32.005 7.11a260.989 260.989 0 0 0 -5.01 -0.096m-5.99 0c-1.827 0.018 -3.495 0.051 -5.01 0.095m-5.993 0.262c-0.635 0.038 -1.217 0.078 -1.747 0.117 -2.554 0.187 -4.532 2.113 -4.75 4.664C3.252 15.092 3 19.63 3 26c0 6.37 0.253 10.909 0.504 13.848 0.219 2.55 2.197 4.476 4.75 4.664C11.484 44.75 16.635 45 24 45s12.517 -0.25 15.745 -0.488c2.553 -0.188 4.533 -2.113 4.75 -4.664 0.252 -2.94 0.505 -7.479 0.505 -13.848 0 -6.37 -0.253 -10.909 -0.504 -13.848 -0.218 -2.551 -2.198 -4.477 -4.75 -4.664a114.2 114.2 0 0 0 -1.748 -0.117" stroke-width="3"></path>
</g></symbol>
<symbol id="ui-ai-spark" viewBox="0 0 48 48" fill="none"><g id="magic-wand-1--sselection-wand-object-work">
<path id="Union" stroke="currentColor" stroke-linecap="round" stroke-linejoin="round" d="M3.6216 39.6177c-0.64561 -1.5916 0.14001 -3.2723 1.42577 -4.4111L27.8856 14.9788c0.8409 -0.7447 1.9834 -1.1292 2.992 -0.635 0.5154 0.2525 1.088 0.6209 1.6231 1.1559 0.535 0.5351 0.9034 1.1077 1.1558 1.623 0.4941 1.0085 0.1096 2.1508 -0.635 2.9915l-20.228 22.8385c-1.1388 1.2858 -2.81946 2.0714 -4.41107 1.4258 -0.89851 -0.3645 -1.91613 -0.9518 -2.86258 -1.8983 -0.94646 -0.9464 -1.53378 -1.964 -1.89825 -2.8625Z" stroke-width="3"></path>
<path id="Intersect" stroke="currentColor" stroke-linecap="round" stroke-linejoin="round" d="M28.1368 25.6291c-0.9794 -0.9321 -2.0257 -1.9521 -3.1417 -3.0682 -0.9456 -0.9456 -1.8223 -1.8411 -2.635 -2.6883" stroke-width="3"></path>
<path id="Vector 1353" stroke="currentColor" stroke-linecap="round" stroke-linejoin="round" d="m21 7 3 3" stroke-width="3"></path>
<path id="Vector 1354" stroke="currentColor" stroke-linecap="round" stroke-linejoin="round" d="m38 24 3 3" stroke-width="3"></path>
<path id="Vector 1353_2" stroke="currentColor" stroke-linecap="round" stroke-linejoin="round" d="m41 7 -3 3" stroke-width="3"></path>
<path id="Vector 1353_3" stroke="currentColor" stroke-linecap="round" stroke-linejoin="round" d="M31 2.85791v4.24264" stroke-width="3"></path>
<path id="Vector 1354_2" stroke="currentColor" stroke-linecap="round" stroke-linejoin="round" d="M40.8994 17h4.2427" stroke-width="3"></path>
</g></symbol>
<symbol id="ui-brand-pulse" viewBox="0 0 48 48" fill="none"><g id="heart-rate-pulse-graph">
<path id="Vector 8" stroke="currentColor" stroke-linecap="round" stroke-linejoin="round" d="M42.778 26.437c2.06 -3.301 2.73 -7.39 1.834 -11.194 -1.914 -8.662 -12.51 -12.201 -19.11 -6.396 -0.523 0.456 -0.988 0.983 -1.502 1.508 -0.514 -0.525 -0.98 -1.052 -1.502 -1.508 -6.6 -5.805 -17.196 -2.266 -19.11 6.396 -0.895 3.803 -0.225 7.893 1.834 11.194 3.603 5.786 9.413 10.29 15.08 14.374a6.343 6.343 0 0 0 7.396 0c5.667 -4.083 11.477 -8.588 15.08 -14.374Z" stroke-width="3"></path>
<path id="Vector 1158" stroke="currentColor" stroke-linecap="round" stroke-linejoin="round" d="M9 23h6l3.5 -6L24 30l6 -16 4 9h5" stroke-width="3"></path>
</g></symbol>
<symbol id="ui-calendar" viewBox="0 0 48 48" fill="none"><g id="calendar-mark--calendar-date-day-month-mark">
<path id="Vector 1380" stroke="currentColor" stroke-linecap="round" stroke-linejoin="round" d="M22 25h4" stroke-width="3"></path>
<path id="Vector 1381" stroke="currentColor" stroke-linecap="round" stroke-linejoin="round" d="M32 25h4" stroke-width="3"></path>
<path id="Vector 1382" stroke="currentColor" stroke-linecap="round" stroke-linejoin="round" d="M16 25h-4" stroke-width="3"></path>
<path id="Vector 1383" stroke="currentColor" stroke-linecap="round" stroke-linejoin="round" d="M22 35h4" stroke-width="3"></path>
<path id="Vector 1384" stroke="currentColor" stroke-linecap="round" stroke-linejoin="round" d="M32 35h4" stroke-width="3"></path>
<path id="Vector 1385" stroke="currentColor" stroke-linecap="round" stroke-linejoin="round" d="M16 35h-4" stroke-width="3"></path>
<path id="Subtract" stroke="currentColor" stroke-linecap="round" stroke-linejoin="round" d="M11.003 8.563c-1.137 0.11 -2.12 0.225 -2.952 0.336 -2.199 0.293 -3.877 1.948 -4.192 4.144C3.451 15.887 3 20.41 3 26.5c0 6.09 0.451 10.614 0.859 13.458 0.315 2.196 1.993 3.85 4.192 4.144 3.13 0.417 8.38 0.898 15.949 0.898 7.568 0 12.818 -0.48 15.949 -0.898 2.199 -0.293 3.877 -1.948 4.192 -4.144 0.408 -2.844 0.859 -7.368 0.859 -13.458 0 -6.089 -0.451 -10.613 -0.859 -13.457 -0.315 -2.196 -1.993 -3.851 -4.192 -4.144a82.173 82.173 0 0 0 -2.952 -0.336" stroke-width="3"></path>
<path id="Subtract_2" stroke="currentColor" stroke-linecap="round" stroke-linejoin="round" d="M29 8.074A164.037 164.037 0 0 0 24 8c-1.796 0 -3.462 0.027 -5 0.074" stroke-width="3"></path>
<path id="Vector" stroke="currentColor" stroke-linecap="round" stroke-linejoin="round" d="M29.013 9.27c0.043 2.08 1.409 3.694 3.489 3.726a32.976 32.976 0 0 0 0.996 0c2.08 -0.032 3.446 -1.646 3.489 -3.726a61.262 61.262 0 0 0 0 -2.54c-0.043 -2.08 -1.409 -3.694 -3.489 -3.726a32.444 32.444 0 0 0 -0.996 0c-2.08 0.032 -3.446 1.646 -3.489 3.726a61.262 61.262 0 0 0 0 2.54Z" stroke-width="3"></path>
<path id="Vector_2" stroke="currentColor" stroke-linecap="round" stroke-linejoin="round" d="M11.013 9.27c0.043 2.08 1.409 3.694 3.489 3.726a32.976 32.976 0 0 0 0.996 0c2.08 -0.032 3.446 -1.646 3.489 -3.726a61.262 61.262 0 0 0 0 -2.54c-0.043 -2.08 -1.409 -3.694 -3.489 -3.726a32.444 32.444 0 0 0 -0.996 0c-2.08 0.032 -3.446 1.646 -3.489 3.726a61.262 61.262 0 0 0 0 2.54Z" stroke-width="3"></path>
</g></symbol>
<symbol id="ui-camera" viewBox="0 0 48 48" fill="none"><g id="camera-1--photos-picture-camera-photography-photo-pictures">
<path id="Union" stroke="currentColor" stroke-linejoin="round" d="M14.07 10.794c-2.181 0.073 -4.008 0.163 -5.48 0.252 -2.713 0.164 -4.856 2.235 -5.097 4.943A124.46 124.46 0 0 0 3 26.864c0 4.257 0.246 8.09 0.493 10.874 0.241 2.708 2.384 4.78 5.098 4.943 3.323 0.2 8.455 0.41 15.409 0.41 6.954 0 12.086 -0.21 15.41 -0.41 2.713 -0.164 4.856 -2.235 5.097 -4.943 0.247 -2.783 0.493 -6.617 0.493 -10.874 0 -4.258 -0.246 -8.091 -0.493 -10.875 -0.241 -2.708 -2.384 -4.779 -5.098 -4.943 -1.471 -0.089 -3.298 -0.18 -5.48 -0.252l-1.46 -3.011c-0.712 -1.466 -2.094 -2.49 -3.718 -2.613A63.502 63.502 0 0 0 24 5c-1.932 0 -3.539 0.079 -4.75 0.17 -1.625 0.123 -3.007 1.147 -3.718 2.613l-1.461 3.01Z" stroke-width="3"></path>
<path id="Ellipse 40" stroke="currentColor" stroke-linejoin="round" d="M15 26a9 9 0 1 0 18 0 9 9 0 1 0 -18 0" stroke-width="3"></path>
</g></symbol>
<symbol id="ui-comments" viewBox="0 0 48 48" fill="none"><g id="chat-bubble-oval-notification--messages-message-bubble-chat-oval-notify-ping">
<path id="Union" stroke="currentColor" stroke-linecap="round" stroke-linejoin="round" d="M24 3C12.402 3 3 12.402 3 24c0 3.802 1.01 7.367 2.777 10.443 -0.91 2.377 -1.768 5.137 -2.331 7.896a1.797 1.797 0 0 0 2.197 2.12c2.643 -0.626 5.325 -1.494 7.681 -2.371A20.902 20.902 0 0 0 24 45c11.598 0 21 -9.402 21 -21 0 -0.335 -0.008 -0.669 -0.023 -1" stroke-width="3"></path>
<path id="Ellipse 3" stroke="currentColor" stroke-linejoin="round" d="M45 12a9 9 0 1 1 -18 0 9 9 0 0 1 18 0Z" stroke-width="3"></path>
</g></symbol>
<symbol id="ui-explore" viewBox="0 0 48 48" fill="none"><g id="map-fold--navigation-map-maps-gps-travel-fold">
<path id="Vector 662" stroke="currentColor" stroke-linecap="round" stroke-linejoin="round" d="M16.84 5c-4.587 0.609 -8.783 1.998 -11.205 2.917 -1.349 0.512 -2.229 1.77 -2.305 3.21C3.19 13.781 3 18.706 3 25.9c0 6.878 0.174 11.682 0.312 14.41 0.067 1.341 1.427 2.189 2.694 1.744C12.036 39.936 16.84 39.2 16.84 39.2 24 40.15 31.159 43 31.159 43c4.588 -0.609 8.784 -1.998 11.206 -2.917 1.349 -0.512 2.229 -1.77 2.305 -3.21 0.14 -2.655 0.33 -7.579 0.33 -14.773 0 -6.878 -0.174 -11.682 -0.312 -14.41 -0.067 -1.341 -1.427 -2.189 -2.694 -1.744C35.964 8.064 31.16 8.8 31.16 8.8 24 5.95 16.841 5 16.841 5Z" stroke-width="3"></path>
<path id="Intersect" stroke="currentColor" stroke-linecap="round" stroke-linejoin="round" d="M16.65 39.151V5.126" stroke-width="3"></path>
<path id="Intersect_2" stroke="currentColor" stroke-linecap="round" stroke-linejoin="round" d="M31.35 8.85v34.025" stroke-width="3"></path>
</g></symbol>
<symbol id="ui-eye" viewBox="0 0 48 48" fill="none"><g id="eye-optic--health-medical-eye-optic">
<path id="Intersect" stroke="currentColor" stroke-linecap="round" stroke-linejoin="round" d="M2.8005 26.9011c-0.16368 -0.5893 -0.16369 -1.2124 -0.00002 -1.8016C5.37918 15.8146 13.8939 9 24.0002 9c10.1062 0 18.6207 6.8143 21.1996 16.0989 0.1637 0.5893 0.1637 1.2124 0 1.8016C42.6211 36.1854 34.1064 43 24.0001 43 13.894 43 5.37939 36.1857 2.8005 26.9011Z" stroke-width="3"></path>
<path id="Ellipse 19" stroke="currentColor" stroke-linecap="round" stroke-linejoin="round" d="M34 26c0 5.5228 -4.4772 10 -10 10s-10 -4.4772 -10 -10 4.4772 -10 10 -10 10 4.4772 10 10Z" stroke-width="3"></path>
<path id="Vector 2106" stroke="currentColor" stroke-linecap="round" stroke-linejoin="round" d="M24 9V2" stroke-width="3"></path>
<path id="Vector 2109" stroke="currentColor" stroke-linecap="round" stroke-linejoin="round" d="M14.5 11.0817 11 5.01953" stroke-width="3"></path>
<path id="Vector 2111" stroke="currentColor" stroke-linecap="round" stroke-linejoin="round" d="M33.5 11.0817 37 5.01953" stroke-width="3"></path>
<path id="Vector 2110" stroke="currentColor" stroke-linecap="round" stroke-linejoin="round" d="M6.97904 16.983 2.0293 12.0332" stroke-width="3"></path>
<path id="Vector 2112" stroke="currentColor" stroke-linecap="round" stroke-linejoin="round" d="m41.021 16.981 4.9497 -4.9498" stroke-width="3"></path>
</g></symbol>
<symbol id="ui-feed" viewBox="0 0 48 48" fill="none"><g id="description">
<path id="Union" stroke="currentColor" stroke-linecap="round" stroke-linejoin="round" d="M13.7071 38.8225C16.4853 38.9265 19.8995 39 24 39c7.3712 0 12.5246 -0.2376 15.7523 -0.4626 2.5495 -0.1778 4.5383 -2.0818 4.7621 -4.6276C44.7595 31.121 45 26.8851 45 21s-0.2405 -10.121 -0.4856 -12.90976c-0.2238 -2.54586 -2.2126 -4.44987 -4.7621 -4.62761C36.5246 3.23761 31.3712 3 24 3s-12.5246 0.23761 -15.75228 0.46263c-2.54949 0.17773 -4.53831 2.08175 -4.76208 4.62761C3.24052 10.879 3 15.1149 3 21v22.6516c0 1.7087 2.00424 2.6305 3.30158 1.5185l7.40552 -6.3476Z" stroke-width="3"></path>
<path id="Union_2" stroke="currentColor" stroke-linecap="round" stroke-linejoin="round" d="M27.882 26.9518c2.218 -1.2374 3.36 -2.5874 3.5378 -4.8795 -0.8128 -0.0034 -1.4814 -0.0138 -2.0282 -0.0277 -1.3302 -0.0338 -2.3257 -1.0318 -2.361 -2.362 -0.018 -0.6774 -0.0306 -1.5357 -0.0306 -2.6101 0 -1.1601 0.0147 -2.0682 0.035 -2.7687 0.0363 -1.2528 0.939 -2.2032 2.1913 -2.2547 0.6951 -0.0286 1.602 -0.0491 2.7738 -0.0491 1.1716 0 2.0785 0.0205 2.7735 0.0491 1.2524 0.0515 2.1552 1.002 2.1914 2.2549 0.0201 0.6948 0.0348 1.5939 0.035 2.7405l0 0.028v5.001h-0.0229c-0.2962 4.2356 -3.4247 6.7592 -6.9699 7.8499 -0.499 0.1535 -1.0497 0.0798 -1.4271 -0.2809 -0.4379 -0.4185 -0.8132 -0.9362 -1.088 -1.3676 -0.2955 -0.4638 -0.0904 -1.0552 0.3899 -1.3231Z" stroke-width="3"></path>
<path id="Union_3" stroke="currentColor" stroke-linecap="round" stroke-linejoin="round" d="M11.882 26.9518c2.218 -1.2374 3.36 -2.5874 3.5378 -4.8795 -0.8128 -0.0034 -1.4814 -0.0138 -2.0282 -0.0277 -1.3302 -0.0338 -2.3257 -1.0318 -2.361 -2.362 -0.018 -0.6774 -0.0306 -1.5357 -0.0306 -2.6101 0 -1.1601 0.0147 -2.0682 0.035 -2.7687 0.0363 -1.2528 0.939 -2.2032 2.1913 -2.2547 0.6951 -0.0286 1.602 -0.0491 2.7738 -0.0491 1.1716 0 2.0785 0.0205 2.7735 0.0491 1.2524 0.0515 2.1552 1.002 2.1914 2.2549 0.0201 0.6948 0.0348 1.5939 0.035 2.7405l0 0.028v5.001h-0.0229c-0.2962 4.2356 -3.4247 6.7592 -6.9699 7.8499 -0.499 0.1535 -1.0497 0.0798 -1.4271 -0.2809 -0.4379 -0.4185 -0.8132 -0.9362 -1.088 -1.3676 -0.2955 -0.4638 -0.0904 -1.0552 0.3899 -1.3231Z" stroke-width="3"></path>
</g></symbol>
<symbol id="ui-globe" viewBox="0 0 48 48" fill="none"><g id="world--nature-tree-mountain-hills-earth-globe-planet-environment">
<path id="Rectangle 1099" stroke="currentColor" stroke-linecap="round" stroke-linejoin="round" d="M5 24.0005c1.62754 -3.5319 5.2418 -9.7491 8.687 -13.7016 1.2486 -1.43239 3.3774 -1.43239 4.626 0 3.4453 3.9525 7.0595 10.1697 8.687 13.7016" stroke-width="3"></path>
<path id="Subtract" stroke="currentColor" stroke-linecap="round" stroke-linejoin="round" d="M19.0532 11.1778c2.0286 -2.77665 4.1877 -5.39778 6.2606 -7.35401 1.2411 -1.1713 3.1316 -1.1713 4.3728 0 0.2699 0.25471 0.5412 0.52069 0.8136 0.79682" stroke-width="3"></path>
<path id="Ellipse 20" stroke="currentColor" stroke-linecap="round" stroke-linejoin="round" d="M41.9999 24c1.6568 0 3.0225 1.3508 2.7886 2.9911C43.3366 37.1723 34.5824 45 23.9999 45S4.6631 37.1723 3.21125 26.9911C2.97734 25.3508 4.343 24 5.99985 24l36.00005 0Z" stroke-width="3"></path>
<path id="Intersect" stroke="currentColor" stroke-linecap="round" stroke-linejoin="round" d="M15.5227 24c0.9954 1.7197 1.3303 3.5807 0.4772 5.5 -0.8713 1.9606 -2.5019 2.6873 -4.1475 3.4207 -1.7753 0.7913 -3.56806 1.5903 -4.44371 3.9545" stroke-width="3"></path>
<path id="Intersect_2" stroke="currentColor" stroke-linecap="round" stroke-linejoin="round" d="M24.4277 24c-0.1478 4.8843 3.0923 5.7434 5.8812 6.4828 1.6602 0.4402 3.1605 0.838 3.6911 2.0172 0.3907 1.1721 -0.4697 2.1915 -1.4512 3.3545 -1.5308 1.8138 -3.3564 3.9768 -1.1908 7.6126" stroke-width="3"></path>
<path id="Union" stroke="currentColor" stroke-linecap="round" stroke-linejoin="round" d="M38.3687 3.12855C36.3174 5.36792 33.9878 9.68883 33 12.0295c0 0 0.5044 0.2176 2.37 0.3568 -0.9981 1.8697 -1.8617 3.7713 -2.37 5.0962 0 0 1.0911 0.5176 6 0.5176s6 -0.5176 6 -0.5176c-0.5083 -1.3249 -1.3719 -3.2265 -2.37 -5.0962 1.8656 -0.1392 2.37 -0.3568 2.37 -0.3568 -0.9878 -2.34067 -3.3174 -6.66158 -5.3687 -8.90095 -0.3431 -0.37453 -0.9195 -0.37453 -1.2626 0Z" stroke-width="3"></path>
<path id="Vector 1617" stroke="currentColor" stroke-linecap="round" d="m39 18 0 6" stroke-width="3"></path>
</g></symbol>
<symbol id="ui-incognito" viewBox="0 0 48 48" fill="none"><g id="incognito-mode--internet-safe-mode-browser">
<path id="Ellipse 533" stroke="currentColor" d="M7 38a7 7 0 1 0 14 0 7 7 0 1 0 -14 0" stroke-width="3"></path>
<path id="Ellipse 534" stroke="currentColor" d="M41 38a7 7 0 1 1 -14 0 7 7 0 1 1 14 0" stroke-width="3"></path>
<path id="Ellipse 535" stroke="currentColor" stroke-linecap="round" d="M21 38c1.6569 -1.3333 4.3431 -1.3333 6 0" stroke-width="3"></path>
<path id="Rectangle 56" stroke="currentColor" stroke-linejoin="round" d="M3.04951 23.0629c0.11016 1.0888 1.06378 1.674 2.15738 1.713C7.70036 24.8648 13.2588 25 24 25s16.2996 -0.1352 18.7931 -0.2241c1.0936 -0.039 2.0472 -0.6242 2.1574 -1.713C44.981 22.7611 45 22.409 45 22c0 -0.409 -0.019 -0.7611 -0.0495 -1.0629 -0.1102 -1.0888 -1.0638 -1.674 -2.1574 -1.713C40.2996 19.1352 34.7412 19 24 19s-16.29963 0.1352 -18.79311 0.2241c-1.0936 0.039 -2.04722 0.6242 -2.15738 1.713C3.01896 21.2389 3 21.591 3 22c0 0.409 0.01896 0.7611 0.04951 1.0629Z" stroke-width="3"></path>
<path id="Subtract" stroke="currentColor" d="M8.21484 19.1392c0.31921 -2.4984 1.02088 -7.1667 2.27996 -11.84884 0.5843 -2.17287 2.4604 -3.71122 4.702 -3.90656C17.413 3.19068 20.4899 3 24.0001 3c3.5101 0 6.5871 0.19068 8.8032 0.3838 2.2416 0.19534 4.1177 1.73369 4.702 3.90655 1.2591 4.68215 1.9608 9.35045 2.28 11.84885" stroke-width="3"></path>
</g></symbol>
<symbol id="ui-info" viewBox="0 0 48 48" fill="none"><g id="information-circle--information-frame-info-more-help-point-circle">
<path id="Ellipse 18" stroke="currentColor" stroke-linecap="round" stroke-linejoin="round" d="M24 3c11.598 0 21 9.402 21 21s-9.402 21 -21 21S3 35.598 3 24 12.402 3 24 3Z" stroke-width="3"></path>
<path id="Union" stroke="currentColor" stroke-linecap="round" stroke-linejoin="round" d="M24.9437 20.0255c1.1382 0.0661 1.8663 0.9506 1.9368 2.0885C26.9441 23.14 27 24.6971 27 27v5.0284c1.2699 0.0262 2.2173 0.0675 2.9122 0.11 1.0939 0.0669 1.9719 0.7401 2.0527 1.8331 0.0217 0.2941 0.0351 0.635 0.0351 1.0285 0 0.3935 -0.0134 0.7344 -0.0351 1.0285 -0.0808 1.093 -0.9588 1.7662 -2.0527 1.8331C28.7527 37.9325 26.8903 38 24 38c-2.8903 0 -4.7527 -0.0675 -5.9122 -0.1384 -1.0939 -0.0669 -1.9719 -0.7401 -2.0527 -1.8331C16.0134 35.7344 16 35.3935 16 35c0 -0.3935 0.0134 -0.7344 0.0351 -1.0285 0.0808 -1.093 0.9588 -1.7662 2.0527 -1.8331 0.6949 -0.0425 1.6423 -0.0838 2.9122 -0.11V27c0 -0.3517 0.0013 -0.6861 0.0037 -1.0038 -0.1594 0.0025 -0.3271 0.0038 -0.5037 0.0038 -0.5855 0 -1.0745 -0.0145 -1.4813 -0.037 -1.1866 -0.0659 -1.9792 -0.941 -2.0089 -2.1291C17.0036 23.5866 17 23.3096 17 23s0.0036 -0.5866 0.0098 -0.8339c0.0297 -1.1881 0.8223 -2.0632 2.0089 -2.1291 0.4068 -0.0225 0.8958 -0.037 1.4813 -0.037H24c0.3563 0 0.6694 0.0096 0.9437 0.0255Z" stroke-width="3"></path>
<path id="Ellipse 67" stroke="currentColor" stroke-linecap="round" stroke-linejoin="round" d="M20.5 12.5a3.5 3.5 0 1 0 7 0 3.5 3.5 0 1 0 -7 0" stroke-width="3"></path>
</g></symbol>
<symbol id="ui-insights" viewBox="0 0 48 48" fill="none"><g id="dashboard-1--corners-dashboard-frame-layout-mat-octagon-square-triangle">
<path id="Vector" stroke="currentColor" stroke-linecap="round" stroke-linejoin="round" d="M39.7428 3.53897c2.5553 0.20761 4.5106 2.16291 4.7182 4.71821C44.7233 11.4854 45 16.636 45 24c0 7.364 -0.2767 12.5146 -0.539 15.7428 -0.2076 2.5553 -2.1629 4.5106 -4.7182 4.7182C36.5146 44.7233 31.364 45 24 45c-7.364 0 -12.5146 -0.2767 -15.74283 -0.539 -2.5553 -0.2076 -4.5106 -2.1629 -4.71821 -4.7182C3.27667 36.5146 3 31.364 3 24c0 -7.364 0.27668 -12.5146 0.53897 -15.74283 0.20761 -2.5553 2.16291 -4.5106 4.71821 -4.71821C11.4854 3.27667 16.636 3 24 3c7.364 0 12.5146 0.27668 15.7428 0.53897Z" stroke-width="3"></path>
<path id="Vector_2" stroke="currentColor" stroke-linecap="round" stroke-linejoin="round" d="M25.1269 3.87378c-0.6655 -0.53613 -1.5884 -0.53613 -2.2539 0 -1.5986 1.28788 -4.8979 4.1013 -9.898 9.10142 -5.00016 5.0001 -7.81359 8.2995 -9.10147 9.8981 -0.53613 0.6654 -0.53613 1.5883 0 2.2538 1.28789 1.5986 4.10131 4.898 9.10147 9.8981 5.0001 5.0001 8.2994 7.8135 9.898 9.1014 0.6655 0.5361 1.5884 0.5361 2.2539 0 1.5986 -1.2879 4.8979 -4.1013 9.8981 -9.1014 5.0001 -5.0001 7.8135 -8.2995 9.1014 -9.8981 0.5361 -0.6654 0.5361 -1.5884 0 -2.2538 -1.2879 -1.5986 -4.1013 -4.898 -9.1015 -9.8981 -5.0001 -5.00011 -8.2994 -7.81354 -9.898 -9.10142Z" stroke-width="3"></path>
</g></symbol>
<symbol id="ui-lightbulb" viewBox="0 0 48 48" fill="none"><g id="lightbulb--lighting-light-incandescent-bulb-lights">
<path id="Union" stroke="currentColor" stroke-linecap="round" stroke-linejoin="round" d="M13.5161 33.3833C9.54887 30.2712 7 25.4333 7 20c0 -9.3888 7.6112 -17 17 -17s17 7.6112 17 17c0 5.4333 -2.5489 10.2712 -6.5161 13.3833 -0.3216 1.2995 -0.6848 2.5462 -0.9714 3.4792 -0.3066 0.9982 -1.1357 1.7238 -2.1742 1.8322C29.9447 38.8402 27.5956 39 24 39s-5.9447 -0.1598 -7.3383 -0.3053c-1.0385 -0.1084 -1.8676 -0.834 -2.1742 -1.8322 -0.2866 -0.933 -0.6498 -2.1797 -0.9714 -3.4792Z" stroke-width="3"></path>
<path id="Subtract" stroke="currentColor" stroke-linecap="round" stroke-linejoin="round" d="M16.4883 38.6703c0.2026 1.31 0.4138 2.5022 0.5905 3.4438 0.2487 1.3248 1.191 2.3889 2.5238 2.5905 1.046 0.1583 2.4993 0.2951 4.3973 0.2951 1.8049 0 3.2881 -0.1237 4.4173 -0.272 1.5843 -0.2079 2.6941 -1.5256 2.8662 -3.1142l0.3208 -2.9612" stroke-width="3"></path>
<path id="Ellipse 20" stroke="currentColor" stroke-linecap="round" stroke-linejoin="round" d="M34 19c0 -5.5228 -4.4772 -10 -10 -10" stroke-width="3"></path>
</g></symbol>
<symbol id="ui-lightning" viewBox="0 0 48 48" fill="none"><g id="lightning-cloud--cloud-bolt-storm-weather-thunder-meteorology-lightning">
<path id="Union" stroke="currentColor" stroke-linecap="round" stroke-linejoin="round" d="M43.607 29.5C44.5 27.938 45 26.082 45 24c0 -5.367 -3.314 -9.23 -8.178 -10.435C35.892 7.38 31.39 3.05 24.777 3.003a109.576 109.576 0 0 0 -1.554 0c-6.614 0.047 -11.116 4.378 -12.045 10.562C6.314 14.77 3 18.633 3 24c0 6.328 4.607 10.565 10.93 10.82 0.65 0.027 1.34 0.05 2.07 0.072" stroke-width="3"></path>
<path id="Union_2" stroke="currentColor" stroke-linecap="round" stroke-linejoin="round" d="M36.9 24.887c0.396 -1.307 -0.48 -2.582 -1.841 -2.707A44.503 44.503 0 0 0 31 22c-2.022 0 -3.534 0.128 -4.534 0.254 -0.93 0.118 -1.688 0.751 -2.036 1.623 -1.34 3.365 -2.286 6.598 -2.84 8.703 -0.326 1.237 0.624 2.41 1.904 2.407 1.008 -0.001 2.234 0.001 3.506 0.013 0 0 -0.776 4.071 -1.551 8.432 -0.16 0.903 0.866 1.508 1.563 0.913 4.371 -3.736 8.567 -8.196 11.203 -11.14 1.13 -1.26 0.226 -3.205 -1.467 -3.205H35s1.111 -2.516 1.9 -5.113Z" stroke-width="3"></path>
</g></symbol>
<symbol id="ui-location" viewBox="0 0 48 48" fill="none"><g id="location-pin--navigation-map-maps-pin-gps-location">
<path id="Ellipse 517" stroke="currentColor" stroke-linecap="round" stroke-linejoin="round" d="M42 21c0 12.919 -13.35 22.128 -17.056 24.436a1.765 1.765 0 0 1 -1.888 0C19.351 43.128 6 33.919 6 21c0 -9.941 8.059 -18 18 -18s18 8.059 18 18Z" stroke-width="3"></path>
<path id="Ellipse 27" stroke="currentColor" stroke-linecap="round" stroke-linejoin="round" d="M32 21a8 8 0 1 1 -16 0 8 8 0 0 1 16 0Z" stroke-width="3"></path>
</g></symbol>
<symbol id="ui-lock" viewBox="0 0 48 48" fill="none"><g id="keyhole-lock-circle--circle-frame-key-keyhole-lock-locked-secure-security">
<path id="Ellipse 18" stroke="currentColor" stroke-linecap="round" stroke-linejoin="round" d="M24 3c11.598 0 21 9.402 21 21s-9.402 21 -21 21S3 35.598 3 24 12.402 3 24 3Z" stroke-width="3"></path>
<path id="Union" stroke="currentColor" stroke-linecap="round" stroke-linejoin="round" d="M27.505 25.194a6.6 6.6 0 1 0 -7.008 0l-1.643 7.392c-0.206 0.925 0.28 1.847 1.208 2.042 0.913 0.192 2.225 0.372 3.938 0.372s3.026 -0.18 3.939 -0.372c0.928 -0.195 1.414 -1.117 1.208 -2.042l-1.642 -7.392Z" stroke-width="3"></path>
</g></symbol>
<symbol id="ui-megaphone" viewBox="0 0 48 48" fill="none"><g id="annoncement-megaphone">
<path id="Vector 2506" stroke="currentColor" stroke-linecap="round" stroke-linejoin="round" d="m42.5 19 -3 0" stroke-width="3"></path>
<path id="Vector 2507" stroke="currentColor" stroke-linecap="round" stroke-linejoin="round" d="m8.5 19 3 0" stroke-width="3"></path>
<path id="Vector 2507_2" stroke="currentColor" stroke-linecap="round" stroke-linejoin="round" d="M25.5 2v3" stroke-width="3"></path>
<path id="Vector 2507_3" stroke="currentColor" stroke-linecap="round" stroke-linejoin="round" d="m13.479 6.98 2.12 2.122" stroke-width="3"></path>
<path id="Vector 2507_4" stroke="currentColor" stroke-linecap="round" stroke-linejoin="round" d="m37.52 6.98 -2.122 2.122" stroke-width="3"></path>
<path id="Vector" stroke="currentColor" stroke-linecap="round" stroke-linejoin="round" d="M26.811 12.427c-8.819 7.698 -18.314 17.38 -21.687 20.87 -0.79 0.817 -1.042 2.008 -0.587 3.048 0.248 0.565 0.541 1.182 0.844 1.707 0.303 0.525 0.691 1.087 1.057 1.584 0.672 0.915 1.83 1.291 2.932 1.016 4.709 -1.177 17.842 -4.558 28.918 -8.346" stroke-width="3"></path>
<path id="Vector_2" stroke="currentColor" stroke-linecap="round" stroke-linejoin="round" d="M21.612 17.193s2.091 2.092 5.636 8.232c3.546 6.14 4.311 8.997 4.311 8.997" stroke-width="3"></path>
<path id="Ellipse 21" stroke="currentColor" stroke-linecap="round" stroke-linejoin="round" d="m22.696 37.357 0.594 2.218a4.59 4.59 0 1 1 -8.87 2.376l-0.494 -1.848" stroke-width="3"></path>
<path id="Vector_3" stroke="currentColor" stroke-linecap="round" stroke-linejoin="round" d="M26.046 11.1s2.397 2.621 7.166 10.882c4.77 8.26 5.841 11.647 5.841 11.647" stroke-width="3"></path>
</g></symbol>
<symbol id="ui-play" viewBox="0 0 48 48" fill="none"><g id="button-play-circle--controls-media-multi-play-multimedia-button-circle">
<path id="Ellipse 21" stroke="currentColor" stroke-linejoin="round" d="M24 3c11.598 0 21 9.402 21 21s-9.402 21 -21 21S3 35.598 3 24 12.402 3 24 3Z" stroke-width="3"></path>
<path id="Rectangle 128" stroke="currentColor" stroke-linejoin="round" d="M15.434 17.315c0.352 -2.598 2.64 -4.064 5.076 -3.094 1.534 0.611 3.547 1.528 6.137 2.904 2.446 1.3 4.378 2.462 5.878 3.446 2.653 1.74 2.653 5.118 0 6.858 -1.5 0.983 -3.432 2.146 -5.878 3.446 -2.59 1.375 -4.603 2.292 -6.137 2.903 -2.436 0.97 -4.724 -0.495 -5.076 -3.093A49.898 49.898 0 0 1 15 24c0 -2.67 0.195 -4.925 0.434 -6.685Z" stroke-width="3"></path>
</g></symbol>
<symbol id="ui-refresh" viewBox="0 0 48 48" fill="none"><g id="synchronize--arrows-loading-load-sync-synchronize-arrow-reload">
<path id="Union" stroke="currentColor" stroke-linecap="round" stroke-linejoin="round" d="M21.8399 3.11316c1.2851 -0.13367 2.4341 0.73444 2.4234 2.02646 -0.0068 0.82963 -0.1269 1.85537 -0.5002 2.99496 -0.3297 1.00663 -1.3114 1.59335 -2.3531 1.78511 -3.9823 0.73301 -7.6302 3.14171 -9.8135 6.92331 -3.10161 5.3722 -2.32595 11.9188 1.4587 16.3994 0.8591 -0.6612 1.6017 -1.2003 2.2336 -1.6376 1.3739 -0.9509 3.014 -0.0623 2.9902 1.6084 -0.0372 2.614 -0.3397 5.4548 -0.671 7.8372 -0.2038 1.4655 -1.4784 2.5351 -2.9571 2.4814 -2.4226 -0.0881 -5.29873 -0.2859 -7.8955 -0.7099 -1.63074 -0.2664 -2.21506 -2.0009 -1.05403 -3.1766 0.58593 -0.5934 1.3176 -1.298 2.22502 -2.1186 -5.53017 -6.5708 -6.65798 -16.1562 -2.11552 -24.024C9.30994 7.44214 15.3739 3.78575 21.8399 3.11316Z" stroke-width="3"></path>
<path id="Union_2" stroke="currentColor" stroke-linecap="round" stroke-linejoin="round" d="M26.1601 44.8864c-1.2851 0.1336 -2.4342 -0.7345 -2.4235 -2.0265 0.0069 -0.8296 0.127 -1.8554 0.5003 -2.995 0.3297 -1.0066 1.3114 -1.5933 2.3531 -1.7851 3.9823 -0.733 7.6302 -3.1417 9.8135 -6.9233 3.1016 -5.3721 2.3259 -11.9188 -1.4588 -16.3994 -0.8591 0.6612 -1.6016 1.2004 -2.2335 1.6377 -1.3739 0.9508 -3.014 0.0622 -2.9902 -1.6085 0.0372 -2.614 0.3396 -5.45482 0.6709 -7.83715 0.2038 -1.46553 1.4785 -2.53513 2.9571 -2.48139 2.4227 0.08804 5.2988 0.28583 7.8956 0.70991 1.6307 0.26632 2.215 2.0009 1.054 3.1766 -0.5859 0.59334 -1.3176 1.29791 -2.225 2.11853 5.5302 6.5708 6.658 16.1563 2.1155 24.024 -3.4991 6.0606 -9.5631 9.717 -16.029 10.3896Z" stroke-width="3"></path>
</g></symbol>
<symbol id="ui-scope-city" viewBox="0 0 48 48" fill="none"><g id="building-office--travel-places-building-office">
<path id="Rectangle 57" stroke="currentColor" stroke-linecap="round" stroke-linejoin="round" d="M28.61 3.492a5.37 5.37 0 0 1 4.899 4.995C33.748 11.807 34 16.973 34 24c0 8.605 -0.189 14.836 -0.324 18.182A2.939 2.939 0 0 1 30.722 45L18.5 45 6.288 45a2.948 2.948 0 0 1 -2.96 -2.83C3.193 38.746 3 32.383 3 24c0 -6.858 0.258 -12.082 0.5 -15.467a5.417 5.417 0 0 1 4.933 -5.045C11.098 3.242 14.689 3 18.5 3c3.831 0 7.44 0.244 10.11 0.492Z" stroke-width="3"></path>
<path id="Subtract" stroke="currentColor" stroke-linecap="round" stroke-linejoin="round" d="m30.722 45 11.07 0a2.957 2.957 0 0 0 2.968 -2.836c0.106 -2.688 0.24 -7 0.24 -11.664 0 -3.563 -0.156 -6.775 -0.325 -9.202 -0.188 -2.72 -2.296 -4.858 -5.017 -5.047a103.875 103.875 0 0 0 -5.775 -0.241" stroke-width="3"></path>
<path id="Intersect" stroke="currentColor" stroke-linecap="round" stroke-linejoin="round" d="m23.416 45 0.006 -0.105c0.043 -1.1 0.078 -2.677 0.078 -4.895 0 -2.218 -0.035 -3.795 -0.078 -4.895 -0.059 -1.488 -0.89 -2.746 -2.365 -2.95A18.78 18.78 0 0 0 18.5 32a18.78 18.78 0 0 0 -2.557 0.155c-1.475 0.204 -2.306 1.462 -2.365 2.95 -0.043 1.1 -0.078 2.677 -0.078 4.895a126.983 126.983 0 0 0 0.084 5" stroke-width="3"></path>
<path id="Vector 860" stroke="currentColor" stroke-linecap="round" stroke-linejoin="round" d="M13 12v2" stroke-width="3"></path>
<path id="Vector 862" stroke="currentColor" stroke-linecap="round" stroke-linejoin="round" d="M13 23v2" stroke-width="3"></path>
<path id="Vector 861" stroke="currentColor" stroke-linecap="round" stroke-linejoin="round" d="M24 12v2" stroke-width="3"></path>
<path id="Vector 863" stroke="currentColor" stroke-linecap="round" stroke-linejoin="round" d="M24 23v2" stroke-width="3"></path>
</g></symbol>
<symbol id="ui-scope-state" viewBox="0 0 48 48" fill="none"><g id="government-building-1--government-building-travel-places">
<path id="Vector 729" stroke="currentColor" stroke-linecap="round" stroke-linejoin="round" d="M12.119 45s-0.438 -23.96 0.368 -32.956a3.433 3.433 0 0 1 0.758 -1.88C16.927 5.668 22.132 3 23.872 3c1.74 0 7.173 2.668 10.882 7.165 0.442 0.536 0.697 1.188 0.76 1.88 0.805 8.994 0.367 32.955 0.367 32.955" stroke-width="3"></path>
<path id="Subtract" stroke="currentColor" stroke-linecap="round" stroke-linejoin="round" d="M12.195 17.18c-1.353 0.045 -2.496 0.094 -3.435 0.14a3.682 3.682 0 0 0 -3.524 3.516C5.12 23.18 5 26.767 5 31.6V45m30.805 -27.82c1.353 0.045 2.496 0.094 3.435 0.141a3.682 3.682 0 0 1 3.523 3.515C42.88 23.18 43 26.767 43 31.6V45" stroke-width="3"></path>
<path id="Ellipse 489" stroke="currentColor" stroke-linecap="round" stroke-linejoin="round" d="M21 12a3 3 0 1 0 6 0 3 3 0 1 0 -6 0" stroke-width="3"></path>
<path id="Rectangle 1497" stroke="currentColor" stroke-linecap="round" stroke-linejoin="round" d="m28 45 0 -8.001C28 34.789 26.21 33 24 33s-4 1.79 -4 3.999L20 45" stroke-width="3"></path>
<path id="Vector 1384" stroke="currentColor" stroke-linecap="round" stroke-linejoin="round" d="M20 19v2" stroke-width="3"></path>
<path id="Vector 1386" stroke="currentColor" stroke-linecap="round" stroke-linejoin="round" d="M20 26v2" stroke-width="3"></path>
<path id="Vector 1385" stroke="currentColor" stroke-linecap="round" stroke-linejoin="round" d="M28 19v2" stroke-width="3"></path>
<path id="Vector 1387" stroke="currentColor" stroke-linecap="round" stroke-linejoin="round" d="M28 26v2" stroke-width="3"></path>
<path id="Vector 1388" stroke="currentColor" stroke-linecap="round" stroke-linejoin="round" d="M45 45H3" stroke-width="3"></path>
</g></symbol>
<symbol id="ui-search" viewBox="0 0 48 48" fill="none"><g id="file-search">
<path id="Subtract" fill-rule="evenodd" stroke="currentColor" stroke-linecap="round" stroke-linejoin="round" d="M42 32a9.958 9.958 0 0 1 -1.115 4.594c1.128 0.936 2.24 1.865 3.339 2.89 1.158 1.082 1.301 2.719 0.206 3.863a32.303 32.303 0 0 1 -1.017 1.018c-1.145 1.095 -2.782 0.951 -3.863 -0.206 -1.02 -1.092 -1.943 -2.197 -2.873 -3.318A9.957 9.957 0 0 1 32 42c-5.523 0 -10 -4.477 -10 -10s4.477 -10 10 -10 10 4.477 10 10Zm-10 4a4 4 0 1 0 0 -8 4 4 0 0 0 0 8Z" clip-rule="evenodd" stroke-width="3"></path>
<path id="Subtract_2" stroke="currentColor" stroke-linecap="round" stroke-linejoin="round" d="M21 43c-6.264 0 -10.566 -0.32 -13.248 -0.627 -2.201 -0.252 -3.85 -1.903 -4.092 -4.105C3.34 35.378 3 30.527 3 23c0 -7.527 0.341 -12.378 0.66 -15.268 0.242 -2.202 1.89 -3.852 4.092 -4.105C10.434 3.321 14.736 3 21 3c1.866 0 3.558 0.028 5.084 0.076 0.85 0.266 3.579 1.354 7.52 5.218 3.719 3.646 4.917 6.233 5.268 7.213 0.04 1.074 0.072 2.237 0.094 3.493" stroke-width="3"></path>
<path id="Intersect" stroke="currentColor" stroke-linecap="round" stroke-linejoin="round" d="M38.886 15.958c-2.087 0.311 -5.841 0.072 -8.69 -0.191a4.664 4.664 0 0 1 -4.229 -4.211c-0.268 -2.802 -0.506 -6.466 -0.18 -8.488" stroke-width="3"></path>
</g></symbol>
<symbol id="ui-trending" viewBox="0 0 48 48" fill="none"><g id="trending-content--lit-flame-torch-trending">
<path id="Subtract" stroke="currentColor" stroke-linecap="round" stroke-linejoin="round" d="M26.3063 3.05941c-1.0958 -0.30472 -2.0365 0.63727 -2.0957 1.77316 -0.137 2.62784 -0.6497 5.56493 -2.0696 7.49543 -0.6855 0.9321 -2.0101 1.1578 -2.8325 0.3439 -0.9092 -0.8999 -1.6116 -2.3018 -2.1479 -3.80654 -0.4748 -1.33217 -2.078 -1.9524 -3.1821 -1.06856C8.57324 12.1241 2.99829 18.7508 2.99829 27.677c0 11.9604 9.40291 17.325 21.00191 17.325 11.599 0 21.0019 -5.3646 21.0019 -17.325 0 -12.2217 -10.4513 -20.13263 -16.6085 -23.73272 -0.6671 -0.39002 -1.3684 -0.68498 -2.0873 -0.88487Z" stroke-width="3"></path>
<path id="Ellipse 19" stroke="currentColor" stroke-linecap="round" stroke-linejoin="round" d="M23.2732 23.332c0.4609 -0.2265 0.9927 -0.2265 1.4536 0C26.6983 24.3007 32 27.39 32 32.6001c0 4.4183 -3.5817 6.4 -8 6.4s-8 -1.9817 -8 -6.4c0 -5.2101 5.3017 -8.2994 7.2732 -9.2681Z" stroke-width="3"></path>
</g></symbol>
<symbol id="ui-verified" viewBox="0 0 48 48" fill="none"><g id="check-thick--check-form-validation-checkmark-success-add-addition-1-tick">
<path id="Vector 7 (Stroke)" fill-rule="evenodd" stroke="currentColor" stroke-linecap="round" stroke-linejoin="round" d="M43.696 9.135c0.98 1.336 0.762 3.135 -0.15 4.518 -8.535 12.93 -14.682 20.785 -18.083 24.85 -1.687 2.015 -4.617 2.163 -6.525 0.354A164.987 164.987 0 0 1 4.955 23.794c-1.21 -1.483 -1.46 -3.576 -0.282 -5.085 1.024 -1.312 2.193 -2.438 3.25 -3.33 1.753 -1.48 4.284 -1.144 5.86 0.524 4.863 5.152 7.794 8.75 7.794 8.75s4.818 -7.04 12.548 -17.87c1.197 -1.677 3.33 -2.458 5.132 -1.459 1.447 0.803 3.129 2.025 4.439 3.81Z" clip-rule="evenodd" stroke-width="3"></path>
</g></symbol>
</svg>
